<svg xmlns="http://www.w3.org/2000/svg" viewBox="0 0 100 100"><path d="M12.58136,87.41864a24.564,24.564,0,0,0,15.87671,7.55377A21.01842,21.01842,0,0,0,44.509,88.56787L60.86835,72.20844c.21545-.21546.40905-.44324.61267-.66541a24.19842,24.19842,0,0,1-4.884.49835q-.63428,0-1.27343-.0332a25.96042,25.96042,0,0,1-8.20972-1.84131L36.6109,80.6698a9.868,9.868,0,0,1-7.57275,3.14825,13.49261,13.49261,0,0,1-8.5586-4.29748A13.49217,13.49217,0,0,1,16.182,70.962a9.86749,9.86749,0,0,1,3.14831-7.57288L35.68964,47.02972a9.867,9.867,0,0,1,7.57251-3.14819A13.49319,13.49319,0,0,1,51.821,48.17908a16.13024,16.13024,0,0,1,3.04187,4.17645l.25855.06866a5.89281,5.89281,0,0,0,1.21094.2002c.09472.00488.18945.00684.2832.00684a5.79409,5.79409,0,0,0,4.16113-1.95411l3.81079-3.81085a27.45046,27.45046,0,0,0-4.8684-6.5852,24.56433,24.56433,0,0,0-15.87684-7.554,21.01873,21.01873,0,0,0-16.05066,6.4046L11.43219,55.49109a21.01857,21.01857,0,0,0-6.40466,16.051A24.56416,24.56416,0,0,0,12.58136,87.41864Z"></path><path d="M44.02374,29.23181a25.45249,25.45249,0,0,1,8.3888,1.95258L63.20746,20.38947A9.14493,9.14493,0,0,1,70.309,17.42236a12.88035,12.88035,0,0,1,8.15234,4.11634A12.88089,12.88089,0,0,1,82.5777,29.691a9.14469,9.14469,0,0,1-2.967,7.10156L63.25116,53.152a9.14519,9.14519,0,0,1-7.10168,2.96728,12.88038,12.88038,0,0,1-8.1521-4.11651,15.50439,15.50439,0,0,1-3.06519-4.25232l-.21411-.06647a6.79246,6.79246,0,0,0-1.63867-.30762c-.09766-.00488-.19629-.00781-.29493-.00781a6.48358,6.48358,0,0,0-4.62011,2.13574l-4.15332,4.15326a28.08675,28.08675,0,0,0,5.21069,7.12085,25.18058,25.18058,0,0,0,16.28308,7.73474,21.63154,21.63154,0,0,0,16.522-6.58551L88.38617,45.56824A21.63044,21.63044,0,0,0,94.9715,29.04657a25.17932,25.17932,0,0,0-7.73462-16.28339A25.18037,25.18037,0,0,0,70.95355,5.02844a21.63088,21.63088,0,0,0-16.52173,6.58545L38.07245,27.97327a24.22867,24.22867,0,0,0-1.93213,2.18805,23.61741,23.61741,0,0,1,6.64221-.96174C43.19464,29.19958,43.60968,29.21033,44.02374,29.23181Z"></path></svg>