<svg aria-hidden="true" style="position: absolute; width: 0; height: 0; overflow: hidden;" version="1.1" xmlns="http://www.w3.org/2000/svg" xmlns:xlink="http://www.w3.org/1999/xlink">
<defs>

<symbol id="icon-download" viewBox="-331 347 100 100">
<title>download</title>
  <path d="M-239 365.6l-9.3-11.9c-.4-.4-1.3-.9-2.2-.9h-60.9c-.9 0-1.8.4-2.2.9l-9.3 11.9c-1.3 1.3-2.2 2.6-2.2 4.4v62.3c0 4.9 4 8.8 8.8 8.8h70.7c4.9 0 8.8-4 8.8-8.8V370c0-1.7-.9-3-2.2-4.4zm-42 57.9l-22.1-22.1h13.2v-17.7h17.7v17.7h13.2l-22 22.1zm30.9-57.4h-61.8l2.2-4.4h57.4l2.2 4.4z"/>
</symbol>

<symbol id="icon-email" viewBox="-255 346.5 100 100">
<title>email</title>
  <path d="M-160.1 372.6l-25.4 23.9 25.4 24c.1-.5.1-1 .1-1.5v-45c0-.5 0-1-.1-1.4zM-199.4 402.8l37.2-35.1c-1.8-2.2-4.6-3.7-7.7-3.7h-70c-3.1 0-5.9 1.4-7.7 3.7l37.2 35.1c2.9 2.9 7.9 2.9 11 0zM-249.9 372.5c-.1.5-.1 1-.1 1.5v45c0 .5 0 1 .1 1.5l25.4-24-25.4-24z"/>
  <path d="M-196 406.5c-2.5 2.3-5.7 3.5-9 3.5s-6.5-1.2-9-3.5l-6.9-6.5-26.9 25.4c1.8 2.2 4.6 3.7 7.7 3.7h70c3.1 0 5.9-1.4 7.7-3.7l-26.9-25.4-6.7 6.5z"/>
</symbol>

<symbol id="icon-information" viewBox="-260 342 100 100">
<title>information</title>
  <path d="M-235 347.038c-11.1 0-20 8.9-20 20v50c0 11.1 8.9 20 20 20h50c11.1 0 20-8.9 20-20v-50c0-11.1-8.9-20-20-20h-50zm30.3 15c1.8 0 3.2.6 4.4 1.8 1.2 1.2 1.8 2.7 1.8 4.4s-.6 3.2-1.8 4.4-2.7 1.8-4.4 1.8-3.2-.6-4.4-1.8-1.8-2.7-1.8-4.4.6-3.2 1.8-4.4 2.6-1.8 4.4-1.8zm2.6 19.5v.5h-.1l-8.5 29.6c-.5 1.7-.7 2.9-.7 3.4 0 .3.1.6.4.9.3.3.5.4.8.4.5 0 1.3.1 2.9-.7 1.5-.9 4.7-2.9 6.5-5.6l3.4 2c-4.3 7.4-12.2 10-17 10-1.8 0-5.3-.5-6.4-1.5-1.1-1-1.6-2.4-1.6-3.9 0-1 .2-2.4.7-4l5.9-20.3c.6-2 .8-2.4.8-3.4 0-.6-.3-1.2-.8-1.7s-1.3-.7-2.2-.7h-1.5l.6-2.5c5.6-.8 11.2-1.2 16.7-2l.1-.5z"/>
</symbol>

<symbol id="icon-link" viewBox="0 0 100 100">
<title>link</title>
<path d="M12.58136,87.41864a24.564,24.564,0,0,0,15.87671,7.55377A21.01842,21.01842,0,0,0,44.509,88.56787L60.86835,72.20844c.21545-.21546.40905-.44324.61267-.66541a24.19842,24.19842,0,0,1-4.884.49835q-.63428,0-1.27343-.0332a25.96042,25.96042,0,0,1-8.20972-1.84131L36.6109,80.6698a9.868,9.868,0,0,1-7.57275,3.14825,13.49261,13.49261,0,0,1-8.5586-4.29748A13.49217,13.49217,0,0,1,16.182,70.962a9.86749,9.86749,0,0,1,3.14831-7.57288L35.68964,47.02972a9.867,9.867,0,0,1,7.57251-3.14819A13.49319,13.49319,0,0,1,51.821,48.17908a16.13024,16.13024,0,0,1,3.04187,4.17645l.25855.06866a5.89281,5.89281,0,0,0,1.21094.2002c.09472.00488.18945.00684.2832.00684a5.79409,5.79409,0,0,0,4.16113-1.95411l3.81079-3.81085a27.45046,27.45046,0,0,0-4.8684-6.5852,24.56433,24.56433,0,0,0-15.87684-7.554,21.01873,21.01873,0,0,0-16.05066,6.4046L11.43219,55.49109a21.01857,21.01857,0,0,0-6.40466,16.051A24.56416,24.56416,0,0,0,12.58136,87.41864Z"></path><path d="M44.02374,29.23181a25.45249,25.45249,0,0,1,8.3888,1.95258L63.20746,20.38947A9.14493,9.14493,0,0,1,70.309,17.42236a12.88035,12.88035,0,0,1,8.15234,4.11634A12.88089,12.88089,0,0,1,82.5777,29.691a9.14469,9.14469,0,0,1-2.967,7.10156L63.25116,53.152a9.14519,9.14519,0,0,1-7.10168,2.96728,12.88038,12.88038,0,0,1-8.1521-4.11651,15.50439,15.50439,0,0,1-3.06519-4.25232l-.21411-.06647a6.79246,6.79246,0,0,0-1.63867-.30762c-.09766-.00488-.19629-.00781-.29493-.00781a6.48358,6.48358,0,0,0-4.62011,2.13574l-4.15332,4.15326a28.08675,28.08675,0,0,0,5.21069,7.12085,25.18058,25.18058,0,0,0,16.28308,7.73474,21.63154,21.63154,0,0,0,16.522-6.58551L88.38617,45.56824A21.63044,21.63044,0,0,0,94.9715,29.04657a25.17932,25.17932,0,0,0-7.73462-16.28339A25.18037,25.18037,0,0,0,70.95355,5.02844a21.63088,21.63088,0,0,0-16.52173,6.58545L38.07245,27.97327a24.22867,24.22867,0,0,0-1.93213,2.18805,23.61741,23.61741,0,0,1,6.64221-.96174C43.19464,29.19958,43.60968,29.21033,44.02374,29.23181Z"></path>
</symbol>

<symbol id="icon-linkedin" viewBox="0 0 32 32">
<title>linkedin</title>
<path d="M29 0h-26c-1.65 0-3 1.35-3 3v26c0 1.65 1.35 3 3 3h26c1.65 0 3-1.35 3-3v-26c0-1.65-1.35-3-3-3zM12 26h-4v-14h4v14zM10 10c-1.106 0-2-0.894-2-2s0.894-2 2-2c1.106 0 2 0.894 2 2s-0.894 2-2 2zM26 26h-4v-8c0-1.106-0.894-2-2-2s-2 0.894-2 2v8h-4v-14h4v2.481c0.825-1.131 2.087-2.481 3.5-2.481 2.488 0 4.5 2.238 4.5 5v9z"></path>
</symbol>
	
<symbol id="icon-medium" viewBox="0 0 28 28">
<title>medium</title>
<path d="M9.328 6.578v18.328c0 0.484-0.234 0.938-0.766 0.938-0.187 0-0.359-0.047-0.516-0.125l-7.266-3.641c-0.438-0.219-0.781-0.781-0.781-1.25v-17.813c0-0.391 0.187-0.75 0.609-0.75 0.25 0 0.469 0.125 0.688 0.234l7.984 4c0.016 0.016 0.047 0.063 0.047 0.078zM10.328 8.156l8.344 13.531-8.344-4.156v-9.375zM28 8.437v16.469c0 0.516-0.297 0.875-0.812 0.875-0.266 0-0.516-0.078-0.734-0.203l-6.891-3.437zM27.953 6.563c0 0.063-8.078 13.172-8.703 14.172l-6.094-9.906 5.063-8.234c0.172-0.281 0.484-0.438 0.812-0.438 0.141 0 0.281 0.031 0.406 0.094l8.453 4.219c0.031 0.016 0.063 0.047 0.063 0.094z"></path>
</symbol>

<symbol id="icon-notebook" viewBox="0 0 91.852 100">
<title>notebook</title>
<path d="M91.907,21.197l-6.754-6.754L68.237,31.359v-16.63H8.234v19.933H0v6.889h8.234v6.37H0v6.89h8.234v6.369H0v6.889h8.234V88  h60.003V44.868L91.907,21.197z M58.208,79.406h-40.17V68.068h7.927V61.18h-7.927v-6.369h7.927v-6.89h-7.927v-6.37h7.927v-6.889  h-7.927V24.186h40.17v17.204l-13.64,13.64l6.752,6.754l6.888-6.887V79.406z"></path>
</symbol>

<symbol id="icon-resume" viewBox="-303 346.5 100 100">
<title>resume</title>
  <path d="M-235.5 367.3c-1.2 0-1.9-.8-1.9-1.9v-15.6h-40.9c-4.3 0-7.8 3.5-7.8 7.8v77.9c0 4.3 3.5 7.8 7.8 7.8h50.6c4.3 0 7.8-3.5 7.8-7.8v-68.2h-15.6zm-17.5 1.9c4.3 0 7.8 3.5 7.8 7.8s-3.5 7.8-7.8 7.8-7.8-3.5-7.8-7.8 3.5-7.8 7.8-7.8zm-9.4 14.8c2.1 2.9 5.5 4.7 9.4 4.7 3.7 0 7.2-1.8 9.4-4.7 3.7 2.9 6.2 7.4 6.2 12.5 0 1.2-1 1.9-1.9 1.9h-27.3c-1.2 0-1.9-.8-1.9-1.9-.1-5.1 2.4-9.5 6.1-12.5zm21.1 24.2c0 1.2-1 1.9-1.9 1.9h-19.5c-1.2 0-1.9-.8-1.9-1.9s.8-1.9 1.9-1.9h19.5c.9-.1 1.9.7 1.9 1.9zm7.8 25.3h-39c-1.2 0-1.9-.8-1.9-1.9s.8-1.9 1.9-1.9h39c1 0 1.9.8 1.9 1.9s-.9 1.9-1.9 1.9zm0-11.7h-39c-1.2 0-1.9-.8-1.9-1.9s.8-1.9 1.9-1.9h39c1 0 1.9.8 1.9 1.9s-.9 1.9-1.9 1.9z"/>
  <path d="M-233.5 350.9v12.5h12.6z"/>
</symbol>

</defs>
</svg>


